<?xml version="1.0" encoding="UTF-8"?>
<svg id="katman_2" data-name="katman 2" xmlns="http://www.w3.org/2000/svg" viewBox="0 0 822.47 154.88">
  <defs>
    <style>
      .cls-1 {
        fill: none;
        stroke: #191000;
        stroke-linecap: round;
        stroke-linejoin: round;
        stroke-width: 2.78px;
      }

      .cls-2 {
        fill: #191000;
      }

      .cls-2, .cls-3, .cls-4 {
        stroke-width: 0px;
      }

      .cls-3 {
        fill: #fff;
      }

      .cls-4 {
        fill: #ffb200;
      }
    </style>
  </defs>
  <g id="Layer_11" data-name="Layer 11">
    <g>
      <path class="cls-3" d="m188.25,90.14c-.5-1.45-1.66-2.13-2.84-2.2-.14-.45-.29-.9-.43-1.34-.13-2.17-.61-4.57-.76-5.73-.01-.19-.03-.38-.05-.57.06-1.44-.86-2.25-1.93-2.42-2.18-6.95-4.45-13.86-7.3-20.6-1.06-2.51-2.23-4.87-3.75-7.14-.42-.63-.85-1.25-1.28-1.87.21-.13.41-.28.6-.47,1.1-1.1,1.27-3.24,0-4.31-2.04-1.73-4.09-3.47-6.16-5.21-.19-.28-.39-.56-.62-.84-1.44-1.73-3.24-3.1-4.84-4.68-.74-.73-1.58-.97-2.37-.88-9.55-7.5-19.71-14.12-31.54-17.46-9.1-2.57-18.4-2.53-27.64-.79-9.64,1.81-18.89,5.23-28.06,8.62-.13.05-.25.11-.37.17-.29-.02-.6,0-.94.1-7.15,2.05-12.72,6.87-18.73,11-5.87,4.04-13.01,5.85-18.22,10.9-2.65,2.57-4.26,6.11-6.09,9.25-1.06,1.81-2.54,3.37-3.81,5.02-1.22,1.58-2.34,3.25-3.34,4.98-1.79,3.08-3.16,6.47-3.91,9.95-.61,2.81-1.13,6.18-.71,9.19-.97.16-1.25,1.36-.41,1.94-.3-.21-.04.1-.01.31.07.5.07,1.01.14,1.52.16,1.09.2,2.19.26,3.29.12,2.09.26,4.39,1.16,6.31-.33.51-.45,1.17-.21,1.93,1.37,4.4,5.16,7.18,8.12,10.47.27.31.63.51,1.02.62,4.99,7.13,9.38,14.76,16.88,19.65.46.3.91.43,1.33.44.05.07.08.12.08.12,1.67,1.68,3.26,3.43,5.13,4.9,1.73,1.36,3.46,2.74,5.15,4.15,1.62,1.35,2.99,2.96,4.58,4.35,6.07,5.29,13.79,7.27,21.64,7.87,1.17.09,1.94-.45,2.33-1.23.49.11.96.21,1.35.31,2.18.53,4.28.75,6.52.81,4.75.13,9.61-.17,14.23-1.33,2.36-.59,4.63-1.53,7-2.14,2.35-.61,4.74-1.1,7.1-1.68,4.99-1.22,9.77-2.99,14.67-4.52.65-.2,1.13-.57,1.44-1.02.29-.02.58-.05.85-.09,2.76-.4,5.39-1.49,7.9-2.67,2.99-1.41,5.64-3.52,8.21-5.55,3.85-3.03,8.57-5.06,12.93-7.25,6.97-3.51,14.28-6.76,20.22-11.93,2.98-2.59,5.55-5.99,6.73-9.78,1.26-4.06.1-8.61-1.24-12.49Z"/>
      <g>
        <path class="cls-3" d="m67.85,50.09c-1.88.79-3.64,2.02-5.07,3.53-.39.21-.77.44-1.13.7-1.72,1.24-3.06,3.27-3.51,5.42-.02.06-.04.12-.06.19-.81,1.49-1.16,3.17-.33,4.77,1.86,3.6,6.49,2.2,9.32.9,2.47-1.14,4.42-2.82,5.93-4.92.96-.73,2.23-1.64,2.97-2.68,1.23-1.72,1.57-4.07.49-5.97-1.74-3.07-5.68-3.16-8.61-1.93Z"/>
        <path class="cls-3" d="m119.22,64.68c-.66-3.56-2.37-7.66-5.67-9.53-1.57-.89-3.36-1.02-4.95-.55-1.05.17-1.92.73-2.61,1.52-.85.83-1.47,1.91-1.69,3.21-.02.1-.03.2-.05.3-.17.66-.27,1.33-.31,1.97-.24,3.81,1.16,7.45,3.48,10.4,2.33,2.96,7.82,4.96,10.64,1.53,2.04-2.48,1.7-5.9,1.16-8.84Z"/>
      </g>
      <g>
        <g>
          <path class="cls-2" d="m88.14,112.98c-3.86,2.4-8.38,5.11-13.1,4.85-.91-.05-2.05-.81-2.87-1.21-.94-.46-1.85-1-2.74-1.55-2.65-1.64-3.78-2.59-3.33-5.87.16-1.18,0-2.8.87-3.75.91-1,2.6-.82,3.76-1.39,1.32-.64,2.53-1.5,3.7-2.37,2.7-2.01,11.3-8.97,3.45-10.71-2.4-.53-5.01-.38-7.45-.46-3.1-.09-5.58-1.57-8.49-2.3-3.17-.79-8.21.04-7.08,4.42.23.89.82,1.63,1.39,2.34.71.89,1.36,1.84,2.09,2.72,1.13,1.35,2.28,2.69,3.41,4.04.73.88,1.98,1.36,2.32,2.53.41,1.42-.69,2.78-1.06,4.07-.97,3.46-3.49,3.32-6.63,4.16-1.03.28-2.01.36-2.94-.23-1.07-.68-1.7-2.38-2.9-2.84-1.04-.39-2.03.93-1.5,1.95.82,1.6,1.24,3.36,2.43,4.25,1.33,1,2.92,1.18,4.53.92,1.98-.32,4.19-2.35,6.25-1.98,1.87.33,3.16,2.78,4.68,3.83,2.09,1.44,4.51,3.4,7.12,2.97,2.87-.47,5.46-1.34,8.19-2.45,2.51-1.02,4.88-2.37,7.04-4,1.13-.85.13-2.73-1.14-1.94Z"/>
          <path class="cls-2" d="m52.37,122.16c-.17.66.22,1.91.45,2.36.85,1.64,2.4,2.8,3.86,3.88,5.93,4.39,12.37,5.58,19.27,2.86,1.41-.56,2.99-1.15,4.01-2.32.33-.38.27-1.15-.33-1.25-2.47-.4-5.05.65-7.56.51-2.67-.14-5.23.01-7.88-.5-3.04-.59-6.36-1.33-8.71-3.68-.64-.64-1.19-1.68-2.01-2.1-.68-.35-.99-.17-1.09.24Z"/>
          <path class="cls-2" d="m135.69,78.19c-.89-3.86-2.25-7.62-4.09-11.13-3.62-6.91-9.3-13.25-16.41-16.64-3.55-1.7-7.31-2.39-10.92-.47-3.66,1.94-5.69,6.27-5.97,10.24-.29,4.06,1.44,8.11,2.61,11.91,1.29,4.18,2.7,8.31,4.78,12.17,3.14,5.83,7.7,11.72,14.12,14.06,3.23,1.18,6.7.79,9.79-.59,7.49-3.34,7.67-12.67,6.09-19.55Zm-18.73-5.02c-2.55,1.61-6.78-.51-9.44-4.73-2.66-4.22-2.75-8.95-.2-10.56,2.55-1.61,6.78.51,9.44,4.73,2.66,4.22,2.75,8.95.2,10.56Z"/>
          <path class="cls-2" d="m209.42,41.79c-.17-.24-.33-.48-.49-.72-.06-.41-.14-.83-.22-1.24.71.58,1.48,1.05,2.42,1.19.09.01.22-.06.17-.17-.6-1.54-1.52-2.82-2.51-4.13-.49-.65-1.03-1.43-1.62-2.16-1.62-4.18-4.15-8.21-7.59-11.76-11.73-12.1-29.48-13.92-39.64-4.07-2.16,2.1-3.8,4.56-4.94,7.25-5.72-4.53-12.51-8.34-19.98-11.18-1.29-.49-2.6-.95-3.92-1.38-1.23-.98-2.75-1.43-4.2-2-1.54-.6-3.09-1.13-4.63-1.72-1.59-.6-3.11-1.36-4.57-2.22-1.41-.83-3.01-1.67-4.18-2.81-.22-.22-.62.07-.44.34.81,1.23,1.5,2.51,2.6,3.52.63.58,1.3,1.12,1.99,1.64-.41-.07-.82-.13-1.22-.19-.54-.2-1.08-.39-1.61-.6-1.59-.6-3.11-1.36-4.57-2.22-1.41-.83-3.01-1.67-4.18-2.81-.22-.22-.61.07-.44.34.81,1.23,1.5,2.51,2.6,3.52.38.36.79.69,1.2,1.02-.88-.06-1.75-.1-2.63-.13-.82-.3-1.63-.63-2.42-1.01-1.61-.76-3.11-1.77-4.51-2.86-1.41-1.1-2.96-2.15-4.15-3.48-.21-.24-.6.07-.44.34.98,1.62,1.82,3.2,3.14,4.6.83.88,1.74,1.69,2.68,2.45-8.99.47-17.9,2.79-26.1,5.91.32-1.89.22-3.74-.38-5.51C71.88,1.48,59.92-1.91,46.7,1.07c-2.99-.38-5.9.56-8.91.24-.2-.02-.3.26-.16.39.86.75,1.64,1.14,2.6,1.32-.48.18-.95.37-1.42.56-.25,0-.51-.01-.76-.01-1.91,0-3.72.47-5.49,1.12-1.52.56-3.02,1.49-4.55,1.95-.22.07-.24.41,0,.46.81.17.88.35,1.65.34.8,0,1.62-.22,2.39-.4.04,0,.07-.02.1-.03-.43.27-.84.54-1.25.82-.33.05-.67.11-.99.18-3.12.65-5.53,2.94-7.81,5.03-.13.12-.03.36.14.35,1.13-.07,2.15-.44,3.13-.9-4.71,4.93-6.83,10.56-5.16,15.47,1.82,5.36,7.73,8.65,15.38,9.38-4.92,3.68-9.76,7.78-13.94,12.29-4.88,5.27-8.5,10.68-10.86,16.23-1.15,1.41-2.04,3.15-3.11,4.45-2,2.45-4.44,3.33-7.46,3.86-.33.06-.27.52,0,.61,2.14.74,4.38.21,6.4-.74-.21.31-.41.62-.59.95-.4.73-.54,1.63-1.03,2.3-.09.12.03.25.15.27.87.09,1.46-.3,1.97-.84-.44.89-.8,1.83-1.07,2.8-.47,1.66-.88,4.29.15,5.78.13.19.37.19.5,0,.5-.7.7-1.63.84-2.57.03,1,.1,2,.21,3,1.88,17.08,14,31.25,25.61,42.86l.88.88c9.81,9.81,18.28,18.29,32.27,22.72,5.64,1.78,11.89,2.69,18.6,2.69h0c11.6,0,24.86-2.67,40.51-8.15,1.06-.37,2.11-.74,3.17-1.11,10.27-3.59,20.89-7.29,30.92-12.13,15.01-7.23,24.48-14.7,28.95-22.81,2.49-4.53,2.58-9.68,1.92-14.34.47.39.99.7,1.6.76.33.03.65-.37.52-.69-.35-.85-.99-1.45-1.62-2.1-.44-.46-.8-.96-1.11-1.48,1.02.97,2.24,1.63,3.71,1.38.23-.04.31-.38.14-.53-.86-.75-1.84-1.36-2.63-2.19-1.01-1.05-1.68-2.36-2.18-3.71-.47-1.29-.83-2.61-1.21-3.93-.25-.87-.58-2.02-1.16-2.82-1.51-4.28-3.27-8.44-5.01-12.51,7.71,1.21,15.34-.71,20.78-5.99,3.66-3.55,5.82-8.12,6.56-13.09.3.83.54,1.69.96,2.47.07.12.29.14.35,0,.53-1.17.31-2.32.05-3.55-.21-1-.36-1.96-.59-2.9.37.4.77.76,1.24,1.05.23.13.48-.04.5-.28.12-1.64-1.18-3.17-2.08-4.43Zm-26.13,48.13c1.35,5.33,3.21,12.64.28,17.95-3.87,7.02-12.49,13.69-26.37,20.38-9.74,4.69-20.2,8.35-30.31,11.88-1.06.37-2.12.74-3.17,1.11-15.02,5.27-27.64,7.83-38.58,7.83-6.11,0-11.77-.81-16.84-2.42-12.64-4-20.26-11.63-29.91-21.28l-.89-.89c-10.89-10.89-22.25-24.08-23.93-39.37-1.2-10.93,2.84-21.24,12.37-31.51,6.01-6.48,13.54-12.13,20.67-16.85,2.98-1.97,5.88-3.78,8.58-5.42,5.76-3.49,11.14-6.27,16.13-8.48,14.44-6.39,25.59-7.97,33.08-7.97.37,0,.73,0,1.1.01,17.93.37,35.85,6.9,47.85,17.27,1.05.91,2.05,1.84,3.01,2.8,8.06,8.14,13.41,20.48,18.1,31.51.11.25.21.5.32.76.33.79.67,1.57.99,2.33l.32.74c2.72,6.36,5.52,12.93,7.23,19.63Z"/>
          <path class="cls-2" d="m81.18,48.56c-.73-1.09-1.6-1.85-2.55-2.37-3.02-2.02-6.69-2.55-10.32-2.04-1.7.24-3.38.62-5.05.99-.89.2-1.79.36-2.67.56-.65.14-1.33.47-2,.44-.53-.03-.59.63-.24.9,2.15,1.65,5.04,1.2,7.61.96-8.02,3.82-18.3,8.23-23.46,15.67-3.1,4.48-3.25,10.88.73,14.88,1.81,1.81,4.35,2.76,6.84,3.1,1.33.18,2.95.3,4.47.11-1.89,1.98-3.82,4.1-5.26,6.37-1.27,2-1.72,4.56-1.31,6.88.44,2.45.81,5.52,2.81,7.08.39.31,1.17.04.95-.55-.52-1.39-.51-2.58-1.08-3.96-.55-1.31-.85-2.72-.88-4.14-.06-3.4,2.46-5.94,4.56-8.29,2.18-2.44,4.64-4.67,6.93-7.01,2.32-2.38,4.43-4.91,6.62-7.4,4.26-4.85,9.17-9.47,12.44-15.07,1.21-2.08,2.32-4.89.84-7.1Zm-11.57,14.44c-3.92,3.09-8.61,3.67-10.48,1.3-1.87-2.37-.2-6.8,3.72-9.89,3.92-3.09,8.61-3.67,10.48-1.3,1.87,2.37.2,6.8-3.72,9.89Z"/>
        </g>
        <g>
          <g>
            <path class="cls-4" d="m157.88,95.8c-.59-.52-1.23-.98-1.85-1.46-.34-.26-1.13-.93-.5-.38-.12-.11-.25-.19-.37-.28-.7-.81-1.39-1.63-2.07-2.45-1.96-2.38-7.77-7.22-10.8-4-.32.34-.38.72-.27,1.12-.93-.12-1.58.54-1.43,1.48,0,0,0,.01,0,.02-.73.04-1.25.62-1.45,1.32-.82.05-1.61.52-1.79,1.43-.04.2-.05.38-.05.55,0,0-.01-.01-.02-.02-.02.15,0,.3.03.45-.11-.42-.1.8-.1.77.02.79.18,1.55.52,2.26.82,1.71,2.49,2.4,4.08,3.23,1.64.86,3.02,1.81,4.38,3.06,1.48,1.36,3.22,2.41,4.65,3.8,1.2,1.17,2.77.64,3.56-.4.11-.01.23-.03.34-.07.95-.26,1.51-.92,1.74-1.72,1.11-.42,1.95-1.56,2.02-2.75.85-.53,1.45-1.44,1.45-2.56,0-1.45-1.04-2.53-2.06-3.42Z"/>
            <path class="cls-4" d="m210.27,142.11c-.06-1.37-.79-2.45-1.73-3.34-1.1-2.05-3.87-2.94-5.81-.4-.49.64-.59,1.29-.45,1.88-.12.15-.23.32-.32.51-.1.21-.18.42-.24.62-1.01.04-1.85.72-2.22,1.59-.83-.16-1.9.27-1.78,1.3.31,2.7,2.35,6.37,5.62,5.47,1.1-.3,1.79-1.11,2.15-2.08,1.01-.05,1.89-.48,2.45-1.6,1.57-.59,2.41-2.33,2.34-3.95Z"/>
          </g>
          <path class="cls-3" d="m208.98,126.31c-.25-2.4-1.92-4.17-3.47-5.86-.3-.33-.64-.57-.98-.74-.02-.05-.03-.1-.05-.14-1.86-4.44-4.04-8.63-6.39-12.82-1.03-1.84-2.46-3.22-4.38-4.08-.3-.13-.81-.24-1.36-.26-1.92-2.06-4.78-2.53-7.58-3.22-1.7-.42-3.08-1.65-4.43-2.7-1.63-1.27-3.32-2.28-5.21-3.12-1.75-.77-3.67-1.11-5.52-1.56-1.42-.34-2.75-.83-4.21-.99-1.35-.15-3.01.28-3.88,1.4-.02,0-.04-.02-.06-.02-.1-.05-.19-.09-.29-.14-.01,0-.02,0-.03,0-.3-.26-.71-.39-1.2-.24-.04.01-.08.02-.11.04-.65.2-1.08.65-1.18,1.32-.3-.2-.6-.39-.91-.56-.37-.21-.82-.2-1.18-.03l5.42,4.5-2.7,3.04c-.03.05-.07.11-.1.16-.63,1.02-1.22,2.04-1.82,3.08-.27.48-.52,1.17-.84,1.78-.3.18-.59.37-.79.49-.89.55-1.82,1.04-2.73,1.56l-1.59,1.79-.99-.8c-.15.02-.29.03-.29.04-.03-.07-.06-.15-.09-.24-.02-.06-.04-.1-.06-.16l-5.94-4.84c-.31.12-.6.28-.87.49-.63.47-.96,1.18-1.13,1.94-.1.05-.21.11-.3.2-1.98,1.73-3.29,4.75-3.9,7.26-.38,1.57-.21,3.19-.43,4.77-.21,1.54-.6,2.99-1,4.49-.83,3.14-.97,6.42-1.59,9.6-.36,1.84-.37,3.63.16,5.29-.6.36-.84,1.07-.55,1.86.32.88,1.21,1.28,2.01,1.63.76.33,1.82.53,2.67.29.34-.06.67-.18.97-.34,1.41,1.33,3.51,2.31,5.08,2.78,2.81.84,6.08.54,8.98.71,2.69.16,5.29-.36,7.28-2.29,1.14-1.11,2.09-2.77,2.54-4.46,1.3.99,2.43,2.19,3.85,3.04,1.87,1.12,4.17,1.34,6.27,1.69,1.39.23,2.85.79,4.29.88.36.64.78,1.26,1.19,1.85,1.48,2.11,3.83,3.38,6.37,3.59,2.38.2,4.85-.93,6.83-2.14,1.76-1.08,4.78-2.98,5.38-5.06.05-.18.08-.36.1-.53.9-.61,1.73-1.35,2.41-1.95,1.9-1.68,3.41-3.7,5.19-5.51,1.81-1.83,3.45-4.08,3.17-6.78Z"/>
          <g>
            <path class="cls-2" d="m146.56,109.01c1.99.95,4.05,1.32,6.23,1,1.86-.28,3.65-1.57,5.06-2.74,1.51-1.24,2.72-3.07,3.7-4.75.49-.84.88-1.74,1.22-2.65.43-1.15.15-2.08-.28-2.99-.5-1.05-1.77-.96-2.53-.33-.01,0-.15.1-.41.32-.35.35-.49.76-.61,1.22-.19.67-.47,1.34-.77,1.97-.67,1.39-1.55,2.68-2.56,3.84-.97,1.12-1.9,2.02-3.23,2.72-1.53.8-3.61.26-5.25.29-1.06.02-1.64,1.61-.57,2.11Z"/>
            <path class="cls-2" d="m213.41,121.78c-.01-.18-.13-.28-.3-.3-1.6-.2-2.78-.54-4.07-1.67-1.84-1.63-3.16-3.83-4.4-5.92-1.35-2.28-2.78-4.51-4.09-6.82-.76-1.33-1.44-2.76-2.34-4,.63-.25,1.2-.59,1.64-1.06.45-.48.29-1.35-.4-1.51-.93-.22-1.89-.14-2.84-.19-1.06-.06-2.11-.52-3.12-.8-2.24-.63-4.39-1.79-6.41-2.9-3.88-2.14-7.65-4.46-11.52-6.6-3.67-2.03-7.92-3.72-12.16-3.08-3.27.5-7.27.85-8.61,4.41-1.06,2.83,3.68,4.84,4.9,2.06.02-.04.03-.08.03-.1.02,0,.04-.01.07-.02.69-.27,1.44-.43,2.17-.58,1.35-.27,2.79-.53,4.08-.4,3.87.39,7.49,2.77,10.75,4.68,3.63,2.13,7.37,4.15,11.29,5.69,1.7.67,3.78,1.16,5.67,1.14-.02.4.09.85.39,1.31,2.81,4.32,5,8.93,8.32,12.92,1.31,1.58,2.77,3.21,4.45,4.46-.23.44-.29.99-.08,1.65.55,1.71.58,2.4.05,4.03-.49,1.51-1.64,3.32-2.75,4.73-2.82,3.59-6.36,6.69-10.02,9.4-2.83,2.09-6.16,4.87-9.9,4.42-.32-.04-.91-.33-1.33-.71-.74-.67-1.31-1.37-1.88-2.18-1.36-1.94-1.99-4.14-3.8-5.8-.23-.21-.73-.09-.69.28.04.36.09.72.15,1.08-.13-.03-.27-.05-.42-.05-3.19-.12-6.44-.39-9.52-1.28-3.26-.94-5.83-3.62-8.2-5.9-.18-.17-.56-.06-.53.22.06.61.17,1.19.32,1.74-4.25.15-8.25-2.09-11.2-5.06-1.8-1.81-2.37-3.76-2.19-6.3.14-1.93.56-3.75.42-5.7-.11-1.52-.47-3.17-1.1-4.56-.13-.29-.6-.27-.74,0-.82,1.57-.6,3.39-.67,5.12-.09,2.15-1.11,4.15-1.37,6.28-.38,3.16.74,5.66,2.79,8.01,2.06,2.36,4.89,4,7.74,5.2,2.44,1.03,5.49,1.69,7.95.42.59.8,1.29,1.51,2.07,2.14-.26.75-.69,1.39-1.3,2.03-.12.12-.25.23-.38.33-.07-.02-.16-.03-.26-.05-.55-.1-1.08-.26-1.63-.3-2.06-.15-4.38.21-6.28-.06-2.56-.37-5.06-1.06-7.63-1.35-2.85-.32-5.75-.91-8.64-1.07.46-3.23.36-6.58.59-9.85.23-3.29.6-6.59,1.2-9.83.6-3.21,1.6-6.27,2.87-9.27.62-1.47,1.39-2.87,2.24-4.22.49-.78.95-1.56,1.52-2.28.46-.59.94-1.03,1.1-1.78.07-.32-.15-.67-.5-.66-1.38.04-2.51,1.3-3.56,2.08-1.35,1.01-2.41,2.48-3.38,3.84-2.08,2.9-3.3,6.38-4.24,9.79-.99,3.59-1.51,7.27-1.88,10.97-.34,3.45-.82,7.12-.68,10.59.02.55.24,1.03.56,1.4-.05.27.04.55.38.69,1.97.86,4.04,1.42,6.07,2.12,2.3.79,4.54,1.69,6.81,2.55,2.79,1.06,5.51,1.75,8.5,2,2.91.25,5.95-.02,7.7-2.63.19-.29.26-.73.28-1.06-.04.58.03.26.35-.03.43-.38.77-.86,1.07-1.33.28-.44.44-1.01.55-1.61,3.72,2.29,8.67,3.21,12.77,3.49.6.04,1.08-.11,1.45-.38.17.63.35,1.26.52,1.9.61,2.31,1.95,4.49,4.19,5.49,4.79,2.15,10.01-1.29,13.8-4.02,4.52-3.26,8.81-6.99,12.2-11.44,2.29-3.01,4.99-7.92,3.46-11.83.94-.25,1.63-.9,1.54-2.15Z"/>
          </g>
          <path class="cls-1" d="m205.76,135.4l3.6,3c1.69,1.41,2.06,3.74.84,5.21l-4.16,4.99c-1.23,1.47-3.59,1.52-5.27.11l-5.4-4.51"/>
          <path class="cls-1" d="m152.73,108.66l-13.82-11.52c-1.69-1.41-2.06-3.74-.84-5.21l4.16-4.99c1.23-1.47,3.59-1.52,5.27-.11l13.54,11.29"/>
          <path class="cls-4" d="m132.04,46.64c-4.96-4.14-11.25-6.42-17.71-6.42-8.24,0-16,3.63-21.27,9.95-9.77,11.72-8.19,29.2,3.53,38.98,4.96,4.14,11.25,6.42,17.71,6.42,7.57,0,14.73-3.06,19.93-8.46l3.86,3.26,2.57-3.04-3.88-3.28c8.4-11.67,6.47-28.06-4.74-37.41Zm-17.73,44.29c-5.37,0-10.6-1.9-14.74-5.34-9.75-8.13-11.07-22.69-2.94-32.44,4.39-5.26,10.84-8.28,17.7-8.28,5.37,0,10.6,1.9,14.74,5.34,9.75,8.13,11.07,22.69,2.94,32.44-4.39,5.26-10.84,8.28-17.7,8.28Z"/>
        </g>
      </g>
      <g>
        <g>
          <path class="cls-2" d="m238.67,126.07h-11.45V55.11c0-9.78,4.57-14.67,13.71-14.67h8.59c9.14,0,13.71,4.89,13.71,14.67v70.96h-11.45v-31.36h-13.12v31.36Zm13.12-41.74v-28.5c0-3.34-1.67-5.01-5.01-5.01h-3.1c-3.34,0-5.01,1.67-5.01,5.01v28.5h13.12Z"/>
          <path class="cls-2" d="m284.82,126.07h-11.45V40.44h11.45v85.62Zm26.36,0h-11.45l-14.31-41.86v-.72l11.92-43.05h10.49l-12.04,42.57,15.38,43.05Z"/>
          <path class="cls-2" d="m317.73,126.07V40.44h11.45v85.62h-11.45Z"/>
          <path class="cls-2" d="m367.1,126.07h-27.19V40.44h11.45v75.25h15.74v10.38Z"/>
          <path class="cls-2" d="m400.85,126.07h-27.19V40.44h11.45v75.25h15.74v10.38Z"/>
          <path class="cls-2" d="m407.41,126.07V40.44h11.45v85.62h-11.45Z"/>
        </g>
        <g>
          <path class="cls-2" d="m493.79,43.93c4.4,2.32,7.81,5.63,10.22,9.91,2.4,4.28,3.61,9.19,3.61,14.74s-1.26,10.27-3.79,14.43c-2.53,4.16-6.08,7.38-10.64,9.66-4.57,2.28-9.83,3.43-15.78,3.43h-12.97c-.41,0-.61.2-.61.61v27.52c0,.57-.16,1.02-.49,1.35-.33.33-.78.49-1.35.49h-19.33c-.57,0-1.02-.16-1.35-.49-.33-.33-.49-.77-.49-1.35V42.28c0-.57.16-1.02.49-1.34.32-.33.77-.49,1.35-.49h35.84c5.79,0,10.89,1.16,15.29,3.49Zm-11.8,31.44c1.83-1.59,2.75-3.69,2.75-6.3s-.92-4.85-2.75-6.48c-1.84-1.63-4.26-2.45-7.28-2.45h-10.27c-.41,0-.61.2-.61.61v16.39c0,.41.2.61.61.61h10.27c3.02,0,5.44-.8,7.28-2.39Z"/>
          <path class="cls-2" d="m560.21,124.48l-2.69-9.54c-.16-.33-.37-.49-.61-.49h-25.93c-.25,0-.45.17-.61.49l-2.69,9.54c-.24,1.06-.94,1.59-2.08,1.59h-20.92c-1.47,0-2-.69-1.59-2.08l25.81-82.08c.33-.98,1.02-1.47,2.08-1.47h25.93c1.06,0,1.75.49,2.08,1.47l25.81,82.08c.08.16.12.41.12.73,0,.9-.57,1.35-1.71,1.35h-20.92c-1.14,0-1.83-.53-2.08-1.59Zm-23.97-27.64h15.29c.49,0,.65-.25.49-.73l-7.83-27.4c-.08-.24-.2-.37-.37-.37s-.29.12-.37.37l-7.71,27.4c-.08.49.08.73.49.73Z"/>
          <path class="cls-2" d="m640.82,40.93c.32-.33.77-.49,1.35-.49h19.33c.57,0,1.02.16,1.34.49.33.33.49.78.49,1.34v81.95c0,.57-.16,1.02-.49,1.35-.33.33-.78.49-1.34.49h-18.47c-.98,0-1.71-.41-2.2-1.22l-24.95-41.59c-.16-.24-.33-.35-.49-.31-.16.04-.25.23-.25.55l.25,40.73c0,.57-.16,1.02-.49,1.35-.33.33-.78.49-1.34.49h-19.33c-.57,0-1.02-.16-1.35-.49-.33-.33-.49-.77-.49-1.35V42.28c0-.57.16-1.02.49-1.34s.77-.49,1.35-.49h18.47c.98,0,1.71.41,2.2,1.22l24.83,41.59c.16.25.33.35.49.31.16-.04.24-.22.24-.55l-.12-40.73c0-.57.16-1.02.49-1.34Z"/>
          <path class="cls-2" d="m673.36,125.58c-.33-.33-.49-.77-.49-1.35V42.28c0-.57.16-1.02.49-1.34.33-.33.78-.49,1.35-.49h31.44c6.61,0,12.46,1.14,17.55,3.42,5.1,2.29,9.03,5.5,11.8,9.67,2.77,4.16,4.16,8.97,4.16,14.43v30.58c0,5.46-1.39,10.27-4.16,14.43-2.77,4.16-6.71,7.38-11.8,9.66-5.1,2.28-10.95,3.43-17.55,3.43h-31.44c-.57,0-1.02-.16-1.35-.49Zm23.12-19.2h10.52c2.77,0,5.06-1.08,6.85-3.24,1.79-2.16,2.73-4.99,2.81-8.5v-22.75c0-3.5-.9-6.34-2.69-8.5-1.8-2.16-4.16-3.24-7.1-3.24h-10.4c-.41,0-.61.2-.61.61v45.01c0,.41.2.61.61.61Z"/>
          <path class="cls-2" d="m797.76,124.48l-2.69-9.54c-.16-.33-.37-.49-.61-.49h-25.93c-.25,0-.45.17-.61.49l-2.69,9.54c-.24,1.06-.94,1.59-2.08,1.59h-20.92c-1.47,0-2-.69-1.59-2.08l25.81-82.08c.33-.98,1.02-1.47,2.08-1.47h25.93c1.06,0,1.75.49,2.08,1.47l25.81,82.08c.08.16.12.41.12.73,0,.9-.57,1.35-1.71,1.35h-20.92c-1.14,0-1.84-.53-2.08-1.59Zm-23.98-27.64h15.29c.49,0,.65-.25.49-.73l-7.83-27.4c-.08-.24-.2-.37-.37-.37s-.29.12-.37.37l-7.71,27.4c-.08.49.08.73.49.73Z"/>
        </g>
      </g>
    </g>
  </g>
</svg>